<svg xmlns="http://www.w3.org/2000/svg" xmlns:xlink="http://www.w3.org/1999/xlink" width="500" zoomAndPan="magnify" viewBox="0 0 375 374.999991" height="500" preserveAspectRatio="xMidYMid meet" version="1.0"><defs><g/></defs><g fill="#2367b1" fill-opacity="1"><g transform="translate(40.426309, 221.218425)"><g><path d="M 0 -72.828125 C 2.082031 -72.828125 4.40625 -73.554688 6.96875 -75.015625 C 9.539062 -76.472656 12.144531 -78.289062 14.78125 -80.46875 C 17.414062 -82.65625 19.910156 -84.820312 22.265625 -86.96875 C 24.617188 -89.125 26.695312 -90.929688 28.5 -92.390625 C 30.3125 -93.847656 31.632812 -94.578125 32.46875 -94.578125 C 33.78125 -94.578125 34.4375 -93.742188 34.4375 -92.078125 L 34.4375 -72.828125 L 43.390625 -72.828125 L 43.390625 -67.625 L 34.4375 -67.625 L 34.4375 -25.59375 C 34.4375 -22.882812 34.46875 -20.175781 34.53125 -17.46875 C 34.601562 -14.769531 34.988281 -12.34375 35.6875 -10.1875 C 36.382812 -8.039062 37.632812 -6.378906 39.4375 -5.203125 C 39.851562 -4.921875 40.285156 -4.78125 40.734375 -4.78125 C 41.179688 -4.78125 41.648438 -4.710938 42.140625 -4.578125 C 42.003906 -3.328125 41.328125 -2.234375 40.109375 -1.296875 C 38.898438 -0.359375 37.460938 0.347656 35.796875 0.828125 C 34.128906 1.316406 32.460938 1.5625 30.796875 1.5625 C 25.804688 1.5625 21.800781 0.726562 18.78125 -0.9375 C 15.757812 -2.601562 13.46875 -4.835938 11.90625 -7.640625 C 10.351562 -10.453125 9.316406 -13.59375 8.796875 -17.0625 C 8.273438 -20.53125 8.015625 -24.035156 8.015625 -27.578125 L 8.015625 -60.96875 C 8.015625 -62.007812 7.960938 -63.050781 7.859375 -64.09375 C 7.753906 -65.132812 7.367188 -65.984375 6.703125 -66.640625 C 6.046875 -67.296875 4.882812 -67.625 3.21875 -67.625 L 0 -67.625 Z M 0 -72.828125 "/></g></g></g><g fill="#2367b1" fill-opacity="1"><g transform="translate(84.851011, 221.218425)"><g><path d="M 5.40625 -91.765625 C 5.40625 -94.753906 5.128906 -97.203125 4.578125 -99.109375 C 4.023438 -101.015625 2.847656 -102.660156 1.046875 -104.046875 L 32.046875 -104.046875 C 33.503906 -104.046875 34.71875 -103.5625 35.6875 -102.59375 C 36.65625 -101.625 37.398438 -100.441406 37.921875 -99.046875 C 38.441406 -97.660156 38.703125 -96.3125 38.703125 -95 C 38.703125 -91.175781 38.023438 -87.597656 36.671875 -84.265625 C 35.316406 -80.941406 33.566406 -77.785156 31.421875 -74.796875 C 29.273438 -71.816406 27.003906 -68.921875 24.609375 -66.109375 C 22.210938 -63.304688 19.9375 -60.5 17.78125 -57.6875 C 15.632812 -54.882812 13.882812 -51.972656 12.53125 -48.953125 C 11.1875 -45.929688 10.515625 -42.722656 10.515625 -39.328125 C 10.515625 -35.992188 11.257812 -33.179688 12.75 -30.890625 C 14.238281 -28.609375 16.175781 -26.753906 18.5625 -25.328125 C 20.957031 -23.910156 23.5625 -22.867188 26.375 -22.203125 C 29.1875 -21.546875 31.910156 -21.21875 34.546875 -21.21875 C 38.015625 -21.21875 41.171875 -21.960938 44.015625 -23.453125 C 46.859375 -24.953125 49.128906 -27.140625 50.828125 -30.015625 C 52.523438 -32.890625 53.375 -36.445312 53.375 -40.6875 L 53.375 -91.765625 C 53.375 -94.753906 53.097656 -97.203125 52.546875 -99.109375 C 51.992188 -101.015625 50.8125 -102.660156 49 -104.046875 L 84.796875 -104.046875 C 83.066406 -102.660156 81.90625 -101.015625 81.3125 -99.109375 C 80.71875 -97.203125 80.421875 -94.753906 80.421875 -91.765625 L 80.421875 -38.390625 C 80.421875 -32.015625 79.625 -26.535156 78.03125 -21.953125 C 76.4375 -17.378906 74.285156 -13.566406 71.578125 -10.515625 C 68.878906 -7.460938 65.878906 -5.050781 62.578125 -3.28125 C 59.285156 -1.507812 55.921875 -0.257812 52.484375 0.46875 C 49.054688 1.195312 45.816406 1.5625 42.765625 1.5625 C 39.710938 1.5625 36.484375 1.195312 33.078125 0.46875 C 29.679688 -0.257812 26.351562 -1.507812 23.09375 -3.28125 C 19.832031 -5.050781 16.867188 -7.460938 14.203125 -10.515625 C 11.535156 -13.566406 9.398438 -17.378906 7.796875 -21.953125 C 6.203125 -26.535156 5.40625 -32.015625 5.40625 -38.390625 Z M 5.40625 -91.765625 "/></g></g></g><g fill="#2367b1" fill-opacity="1"><g transform="translate(170.683285, 221.218425)"><g><path d="M 2.59375 -16.234375 C 2.59375 -21.785156 3.703125 -26.65625 5.921875 -30.84375 C 8.148438 -35.039062 11.148438 -38.648438 14.921875 -41.671875 C 18.703125 -44.691406 22.929688 -47.171875 27.609375 -49.109375 C 32.296875 -51.046875 37.070312 -52.535156 41.9375 -53.578125 C 43.457031 -53.929688 44.457031 -54.554688 44.9375 -55.453125 C 45.425781 -56.359375 45.671875 -57.257812 45.671875 -58.15625 C 45.671875 -59.6875 45.445312 -61.265625 45 -62.890625 C 44.550781 -64.523438 43.679688 -65.914062 42.390625 -67.0625 C 41.109375 -68.207031 39.1875 -68.742188 36.625 -68.671875 C 33.988281 -68.597656 31.59375 -67.832031 29.4375 -66.375 C 27.289062 -64.925781 25.332031 -63.140625 23.5625 -61.015625 C 21.789062 -58.898438 20.140625 -56.785156 18.609375 -54.671875 C 17.085938 -52.554688 15.648438 -50.785156 14.296875 -49.359375 C 12.953125 -47.941406 11.617188 -47.234375 10.296875 -47.234375 C 9.460938 -47.234375 8.71875 -47.5625 8.0625 -48.21875 C 7.40625 -48.882812 7.078125 -49.664062 7.078125 -50.5625 L 7.078125 -56.296875 C 7.078125 -58.097656 7.09375 -59.863281 7.125 -61.59375 C 7.15625 -63.332031 7.832031 -64.820312 9.15625 -66.0625 C 12.695312 -69.46875 17.050781 -71.707031 22.21875 -72.78125 C 27.382812 -73.851562 32.707031 -74.390625 38.1875 -74.390625 C 44.15625 -74.390625 49.359375 -73.46875 53.796875 -71.625 C 58.234375 -69.789062 61.890625 -67.363281 64.765625 -64.34375 C 67.648438 -61.332031 69.800781 -57.988281 71.21875 -54.3125 C 72.644531 -50.632812 73.359375 -46.921875 73.359375 -43.171875 L 73.359375 -12.28125 C 73.359375 -9.289062 73.613281 -6.84375 74.125 -4.9375 C 74.644531 -3.03125 75.601562 -1.382812 77 0 L 51.5 0 C 48.445312 0 46.644531 -1.488281 46.09375 -4.46875 C 45.957031 -5.375 45.660156 -6.207031 45.203125 -6.96875 C 44.753906 -7.726562 44.148438 -8.109375 43.390625 -8.109375 C 42.273438 -8.109375 41.179688 -7.625 40.109375 -6.65625 C 39.035156 -5.6875 37.734375 -4.5625 36.203125 -3.28125 C 34.679688 -2 32.722656 -0.875 30.328125 0.09375 C 27.929688 1.070312 24.863281 1.5625 21.125 1.5625 C 17.789062 1.5625 14.71875 0.765625 11.90625 -0.828125 C 9.101562 -2.421875 6.847656 -4.550781 5.140625 -7.21875 C 3.441406 -9.894531 2.59375 -12.898438 2.59375 -16.234375 Z M 41.9375 -46.828125 C 39.707031 -46.828125 37.46875 -45.972656 35.21875 -44.265625 C 32.96875 -42.566406 31.113281 -40.175781 29.65625 -37.09375 C 28.195312 -34.007812 27.46875 -30.316406 27.46875 -26.015625 C 27.46875 -23.585938 27.757812 -21.28125 28.34375 -19.09375 C 28.9375 -16.90625 29.941406 -15.117188 31.359375 -13.734375 C 32.785156 -12.347656 34.785156 -11.65625 37.359375 -11.65625 C 40.203125 -11.65625 42.316406 -12.78125 43.703125 -15.03125 C 45.085938 -17.289062 45.78125 -20.117188 45.78125 -23.515625 C 45.78125 -26.773438 45.757812 -29.597656 45.71875 -31.984375 C 45.6875 -34.378906 45.671875 -37.175781 45.671875 -40.375 C 45.671875 -42.726562 45.394531 -44.390625 44.84375 -45.359375 C 44.289062 -46.335938 43.320312 -46.828125 41.9375 -46.828125 Z M 41.9375 -46.828125 "/></g></g></g><g fill="#2367b1" fill-opacity="1"><g transform="translate(248.192431, 221.218425)"><g><path d="M 1.046875 0 C 2.429688 -1.382812 3.382812 -3.03125 3.90625 -4.9375 C 4.425781 -6.84375 4.6875 -9.289062 4.6875 -12.28125 L 4.6875 -91.765625 C 4.6875 -94.753906 4.425781 -97.203125 3.90625 -99.109375 C 3.382812 -101.015625 2.429688 -102.660156 1.046875 -104.046875 L 32.046875 -104.046875 C 33.847656 -104.046875 35.40625 -103.710938 36.71875 -103.046875 C 38.039062 -102.390625 39.328125 -101.003906 40.578125 -98.890625 C 41.828125 -96.773438 43.234375 -93.65625 44.796875 -89.53125 C 46.359375 -85.40625 48.316406 -79.835938 50.671875 -72.828125 L 60.453125 -43.703125 C 61.421875 -40.859375 62.375 -38.03125 63.3125 -35.21875 C 64.25 -32.40625 65.1875 -29.835938 66.125 -27.515625 C 67.0625 -25.191406 68.015625 -23.335938 68.984375 -21.953125 C 69.953125 -20.566406 70.890625 -19.875 71.796875 -19.875 C 72.972656 -19.875 73.820312 -20.476562 74.34375 -21.6875 C 74.863281 -22.90625 75.207031 -24.398438 75.375 -26.171875 C 75.550781 -27.941406 75.640625 -29.625 75.640625 -31.21875 C 75.640625 -37.875 74.84375 -43.867188 73.25 -49.203125 C 71.65625 -54.546875 69.695312 -59.382812 67.375 -63.71875 C 65.050781 -68.0625 62.707031 -72.019531 60.34375 -75.59375 C 57.988281 -79.164062 56.007812 -82.53125 54.40625 -85.6875 C 52.8125 -88.84375 52.015625 -91.910156 52.015625 -94.890625 C 52.015625 -98.078125 53.175781 -100.398438 55.5 -101.859375 C 57.832031 -103.316406 60.523438 -104.046875 63.578125 -104.046875 L 85.3125 -104.046875 C 83.925781 -102.660156 82.972656 -101.015625 82.453125 -99.109375 C 81.929688 -97.203125 81.671875 -94.753906 81.671875 -91.765625 L 81.671875 -12.28125 C 81.671875 -9.289062 81.929688 -6.84375 82.453125 -4.9375 C 82.972656 -3.03125 83.925781 -1.382812 85.3125 0 L 58.0625 0 C 55.070312 0 52.503906 -0.742188 50.359375 -2.234375 C 48.210938 -3.722656 46.390625 -5.75 44.890625 -8.3125 C 43.398438 -10.882812 42.066406 -13.78125 40.890625 -17 C 39.710938 -20.226562 38.535156 -23.613281 37.359375 -27.15625 C 36.660156 -29.238281 35.789062 -31.785156 34.75 -34.796875 C 33.707031 -37.816406 32.613281 -40.972656 31.46875 -44.265625 C 30.320312 -47.566406 29.242188 -50.640625 28.234375 -53.484375 C 27.234375 -56.328125 26.457031 -58.613281 25.90625 -60.34375 C 24.9375 -63.1875 23.984375 -66.015625 23.046875 -68.828125 C 22.109375 -71.640625 21.171875 -74.207031 20.234375 -76.53125 C 19.296875 -78.851562 18.359375 -80.707031 17.421875 -82.09375 C 16.484375 -83.476562 15.53125 -84.171875 14.5625 -84.171875 C 13.457031 -84.171875 12.625 -83.5625 12.0625 -82.34375 C 11.507812 -81.132812 11.144531 -79.644531 10.96875 -77.875 C 10.800781 -76.101562 10.71875 -74.421875 10.71875 -72.828125 C 10.71875 -66.171875 11.515625 -60.171875 13.109375 -54.828125 C 14.703125 -49.492188 16.675781 -44.65625 19.03125 -40.3125 C 21.394531 -35.976562 23.738281 -32.023438 26.0625 -28.453125 C 28.382812 -24.878906 30.34375 -21.515625 31.9375 -18.359375 C 33.53125 -15.203125 34.328125 -12.132812 34.328125 -9.15625 C 34.328125 -5.96875 33.164062 -3.644531 30.84375 -2.1875 C 28.519531 -0.726562 25.832031 0 22.78125 0 Z M 1.046875 0 "/></g></g></g><g fill="#2367b1" fill-opacity="1"><g transform="translate(108.86444, 248.85242)"><g><path d="M 2.21875 -6.8125 C 2.21875 -5.707031 2.378906 -4.75 2.703125 -3.9375 C 3.035156 -3.132812 3.484375 -2.472656 4.046875 -1.953125 C 4.617188 -1.429688 5.265625 -1.039062 5.984375 -0.78125 C 6.703125 -0.53125 7.457031 -0.40625 8.25 -0.40625 C 8.988281 -0.40625 9.734375 -0.515625 10.484375 -0.734375 C 11.242188 -0.960938 11.957031 -1.289062 12.625 -1.71875 C 13.300781 -2.144531 13.898438 -2.671875 14.421875 -3.296875 C 14.953125 -3.921875 15.367188 -4.632812 15.671875 -5.4375 C 15.972656 -6.25 16.125 -7.144531 16.125 -8.125 C 16.125 -9.25 15.953125 -10.226562 15.609375 -11.0625 C 15.273438 -11.894531 14.816406 -12.582031 14.234375 -13.125 C 13.660156 -13.664062 13.003906 -14.066406 12.265625 -14.328125 C 11.523438 -14.597656 10.757812 -14.734375 9.96875 -14.734375 C 9.21875 -14.734375 8.472656 -14.617188 7.734375 -14.390625 C 6.992188 -14.171875 6.289062 -13.84375 5.625 -13.40625 C 4.96875 -12.96875 4.378906 -12.429688 3.859375 -11.796875 C 3.347656 -11.160156 2.945312 -10.421875 2.65625 -9.578125 C 2.363281 -8.742188 2.21875 -7.820312 2.21875 -6.8125 Z M 1.203125 -7.546875 C 1.203125 -8.628906 1.410156 -9.640625 1.828125 -10.578125 C 2.242188 -11.515625 2.8125 -12.34375 3.53125 -13.0625 C 4.257812 -13.78125 5.101562 -14.34375 6.0625 -14.75 C 7.019531 -15.15625 8.050781 -15.359375 9.15625 -15.359375 C 10.25 -15.359375 11.273438 -15.15625 12.234375 -14.75 C 13.191406 -14.34375 14.03125 -13.78125 14.75 -13.0625 C 15.476562 -12.34375 16.050781 -11.515625 16.46875 -10.578125 C 16.882812 -9.640625 17.09375 -8.628906 17.09375 -7.546875 C 17.09375 -6.472656 16.882812 -5.460938 16.46875 -4.515625 C 16.050781 -3.578125 15.476562 -2.753906 14.75 -2.046875 C 14.03125 -1.335938 13.191406 -0.78125 12.234375 -0.375 C 11.273438 0.03125 10.25 0.234375 9.15625 0.234375 C 8.050781 0.234375 7.019531 0.03125 6.0625 -0.375 C 5.101562 -0.78125 4.257812 -1.335938 3.53125 -2.046875 C 2.8125 -2.753906 2.242188 -3.578125 1.828125 -4.515625 C 1.410156 -5.460938 1.203125 -6.472656 1.203125 -7.546875 Z M 1.203125 -7.546875 "/></g></g></g><g fill="#2367b1" fill-opacity="1"><g transform="translate(127.14345, 248.85242)"><g><path d="M 3.078125 -9.828125 L 7.3125 -9.828125 L 7.3125 -9.609375 L 3.078125 -9.609375 L 3.09375 0 L 1.953125 0 L 1.953125 -9.0625 C 1.953125 -9.15625 1.953125 -9.242188 1.953125 -9.328125 C 1.953125 -9.421875 1.957031 -9.515625 1.96875 -9.609375 L 0.453125 -9.609375 L 0.453125 -9.828125 L 2 -9.828125 C 2.082031 -10.710938 2.316406 -11.5 2.703125 -12.1875 C 3.097656 -12.875 3.582031 -13.453125 4.15625 -13.921875 C 4.738281 -14.390625 5.367188 -14.742188 6.046875 -14.984375 C 6.734375 -15.234375 7.414062 -15.359375 8.09375 -15.359375 C 8.507812 -15.359375 8.878906 -15.328125 9.203125 -15.265625 C 9.523438 -15.210938 9.847656 -15.140625 10.171875 -15.046875 L 10.171875 -13.96875 C 9.710938 -14.144531 9.265625 -14.273438 8.828125 -14.359375 C 8.398438 -14.441406 7.90625 -14.484375 7.34375 -14.484375 C 6.875 -14.484375 6.390625 -14.441406 5.890625 -14.359375 C 5.390625 -14.273438 4.925781 -14.109375 4.5 -13.859375 C 4.070312 -13.609375 3.726562 -13.242188 3.46875 -12.765625 C 3.207031 -12.296875 3.078125 -11.671875 3.078125 -10.890625 Z M 3.078125 -9.828125 "/></g></g></g><g fill="#2367b1" fill-opacity="1"><g transform="translate(137.763401, 248.85242)"><g><path d="M 3.078125 -9.828125 L 7.3125 -9.828125 L 7.3125 -9.609375 L 3.078125 -9.609375 L 3.09375 0 L 1.953125 0 L 1.953125 -9.0625 C 1.953125 -9.15625 1.953125 -9.242188 1.953125 -9.328125 C 1.953125 -9.421875 1.957031 -9.515625 1.96875 -9.609375 L 0.453125 -9.609375 L 0.453125 -9.828125 L 2 -9.828125 C 2.082031 -10.710938 2.316406 -11.5 2.703125 -12.1875 C 3.097656 -12.875 3.582031 -13.453125 4.15625 -13.921875 C 4.738281 -14.390625 5.367188 -14.742188 6.046875 -14.984375 C 6.734375 -15.234375 7.414062 -15.359375 8.09375 -15.359375 C 8.507812 -15.359375 8.878906 -15.328125 9.203125 -15.265625 C 9.523438 -15.210938 9.847656 -15.140625 10.171875 -15.046875 L 10.171875 -13.96875 C 9.710938 -14.144531 9.265625 -14.273438 8.828125 -14.359375 C 8.398438 -14.441406 7.90625 -14.484375 7.34375 -14.484375 C 6.875 -14.484375 6.390625 -14.441406 5.890625 -14.359375 C 5.390625 -14.273438 4.925781 -14.109375 4.5 -13.859375 C 4.070312 -13.609375 3.726562 -13.242188 3.46875 -12.765625 C 3.207031 -12.296875 3.078125 -11.671875 3.078125 -10.890625 Z M 3.078125 -9.828125 "/></g></g></g><g fill="#2367b1" fill-opacity="1"><g transform="translate(148.383353, 248.85242)"><g><path d="M 0.453125 0 L 0.453125 -0.171875 L 0.875 -0.171875 C 1.300781 -0.171875 1.632812 -0.28125 1.875 -0.5 C 2.125 -0.71875 2.300781 -1.019531 2.40625 -1.40625 C 2.519531 -1.789062 2.578125 -2.21875 2.578125 -2.6875 C 2.578125 -3.175781 2.578125 -3.660156 2.578125 -4.140625 C 2.585938 -4.617188 2.59375 -5.015625 2.59375 -5.328125 C 2.59375 -5.648438 2.59375 -5.8125 2.59375 -5.8125 C 2.59375 -6.226562 2.566406 -6.617188 2.515625 -6.984375 C 2.460938 -7.347656 2.347656 -7.640625 2.171875 -7.859375 C 2.003906 -8.085938 1.734375 -8.203125 1.359375 -8.203125 L 0.546875 -8.203125 L 0.546875 -8.328125 C 0.941406 -8.328125 1.34375 -8.40625 1.75 -8.5625 C 2.15625 -8.726562 2.523438 -8.941406 2.859375 -9.203125 C 3.191406 -9.472656 3.445312 -9.757812 3.625 -10.0625 L 3.703125 -10.0625 L 3.703125 -2.6875 C 3.703125 -2.21875 3.753906 -1.789062 3.859375 -1.40625 C 3.960938 -1.019531 4.140625 -0.71875 4.390625 -0.5 C 4.640625 -0.28125 4.976562 -0.171875 5.40625 -0.171875 L 5.828125 -0.171875 L 5.828125 0 Z M 3 -13.546875 L 3.296875 -13.546875 L 3.296875 -11.15625 L 3 -11.15625 Z M 3 -13.546875 "/></g></g></g><g fill="#2367b1" fill-opacity="1"><g transform="translate(154.350475, 248.85242)"><g><path d="M 6.375 0.234375 C 5.613281 0.234375 4.90625 0.0976562 4.25 -0.171875 C 3.59375 -0.453125 3.007812 -0.832031 2.5 -1.3125 C 2 -1.789062 1.609375 -2.347656 1.328125 -2.984375 C 1.046875 -3.628906 0.90625 -4.3125 0.90625 -5.03125 C 0.90625 -5.757812 1.046875 -6.425781 1.328125 -7.03125 C 1.609375 -7.644531 2 -8.175781 2.5 -8.625 C 3 -9.082031 3.578125 -9.4375 4.234375 -9.6875 C 4.898438 -9.9375 5.613281 -10.0625 6.375 -10.0625 C 7.207031 -10.0625 7.894531 -9.992188 8.4375 -9.859375 C 8.988281 -9.734375 9.398438 -9.597656 9.671875 -9.453125 C 9.941406 -9.316406 10.078125 -9.25 10.078125 -9.25 L 10.0625 -8.046875 C 10.0625 -8.046875 9.945312 -8.101562 9.71875 -8.21875 C 9.5 -8.34375 9.191406 -8.484375 8.796875 -8.640625 C 8.398438 -8.804688 7.929688 -8.945312 7.390625 -9.0625 C 6.847656 -9.1875 6.257812 -9.25 5.625 -9.25 C 4.769531 -9.25 4.015625 -9.101562 3.359375 -8.8125 C 2.710938 -8.53125 2.207031 -8.097656 1.84375 -7.515625 C 1.476562 -6.929688 1.296875 -6.1875 1.296875 -5.28125 C 1.296875 -4.601562 1.445312 -3.992188 1.75 -3.453125 C 2.050781 -2.910156 2.453125 -2.453125 2.953125 -2.078125 C 3.453125 -1.703125 4 -1.410156 4.59375 -1.203125 C 5.195312 -1.003906 5.796875 -0.90625 6.390625 -0.90625 C 6.984375 -0.90625 7.492188 -0.972656 7.921875 -1.109375 C 8.359375 -1.253906 8.722656 -1.421875 9.015625 -1.609375 C 9.304688 -1.804688 9.523438 -1.972656 9.671875 -2.109375 C 9.816406 -2.253906 9.890625 -2.328125 9.890625 -2.328125 L 10.5 -1.265625 C 10.5 -1.265625 10.414062 -1.1875 10.25 -1.03125 C 10.09375 -0.882812 9.84375 -0.710938 9.5 -0.515625 C 9.164062 -0.328125 8.738281 -0.15625 8.21875 0 C 7.695312 0.15625 7.082031 0.234375 6.375 0.234375 Z M 6.375 0.234375 "/></g></g></g><g fill="#2367b1" fill-opacity="1"><g transform="translate(165.589806, 248.85242)"><g><path d="M 0.453125 0 L 0.453125 -0.171875 L 0.875 -0.171875 C 1.300781 -0.171875 1.632812 -0.28125 1.875 -0.5 C 2.125 -0.71875 2.300781 -1.019531 2.40625 -1.40625 C 2.519531 -1.789062 2.578125 -2.21875 2.578125 -2.6875 C 2.578125 -3.175781 2.578125 -3.660156 2.578125 -4.140625 C 2.585938 -4.617188 2.59375 -5.015625 2.59375 -5.328125 C 2.59375 -5.648438 2.59375 -5.8125 2.59375 -5.8125 C 2.59375 -6.226562 2.566406 -6.617188 2.515625 -6.984375 C 2.460938 -7.347656 2.347656 -7.640625 2.171875 -7.859375 C 2.003906 -8.085938 1.734375 -8.203125 1.359375 -8.203125 L 0.546875 -8.203125 L 0.546875 -8.328125 C 0.941406 -8.328125 1.34375 -8.40625 1.75 -8.5625 C 2.15625 -8.726562 2.523438 -8.941406 2.859375 -9.203125 C 3.191406 -9.472656 3.445312 -9.757812 3.625 -10.0625 L 3.703125 -10.0625 L 3.703125 -2.6875 C 3.703125 -2.21875 3.753906 -1.789062 3.859375 -1.40625 C 3.960938 -1.019531 4.140625 -0.71875 4.390625 -0.5 C 4.640625 -0.28125 4.976562 -0.171875 5.40625 -0.171875 L 5.828125 -0.171875 L 5.828125 0 Z M 3 -13.546875 L 3.296875 -13.546875 L 3.296875 -11.15625 L 3 -11.15625 Z M 3 -13.546875 "/></g></g></g><g fill="#2367b1" fill-opacity="1"><g transform="translate(171.556928, 248.85242)"><g><path d="M 4.171875 0.234375 C 3.503906 0.234375 2.953125 0.09375 2.515625 -0.1875 C 2.078125 -0.476562 1.75 -0.847656 1.53125 -1.296875 C 1.3125 -1.753906 1.203125 -2.238281 1.203125 -2.75 C 1.203125 -3.195312 1.285156 -3.613281 1.453125 -4 C 1.617188 -4.394531 1.835938 -4.738281 2.109375 -5.03125 C 2.378906 -5.332031 2.664062 -5.566406 2.96875 -5.734375 C 3.269531 -5.910156 3.5625 -6 3.84375 -6 L 9.6875 -6 L 9.6875 -7.390625 C 9.6875 -8.296875 9.5 -8.921875 9.125 -9.265625 C 8.75 -9.609375 8.238281 -9.78125 7.59375 -9.78125 C 7.15625 -9.78125 6.6875 -9.710938 6.1875 -9.578125 C 5.695312 -9.441406 5.207031 -9.269531 4.71875 -9.0625 C 4.238281 -8.851562 3.78125 -8.632812 3.34375 -8.40625 C 2.914062 -8.175781 2.550781 -7.972656 2.25 -7.796875 L 1.78125 -8.859375 C 2.6875 -9.273438 3.546875 -9.578125 4.359375 -9.765625 C 5.179688 -9.960938 6.054688 -10.0625 6.984375 -10.0625 C 8.328125 -10.0625 9.300781 -9.675781 9.90625 -8.90625 C 10.507812 -8.132812 10.8125 -6.9375 10.8125 -5.3125 L 10.8125 0 L 9.6875 0 L 9.6875 -4.5625 C 9.445312 -3.988281 9.160156 -3.421875 8.828125 -2.859375 C 8.503906 -2.296875 8.117188 -1.78125 7.671875 -1.3125 C 7.222656 -0.84375 6.710938 -0.46875 6.140625 -0.1875 C 5.566406 0.09375 4.910156 0.234375 4.171875 0.234375 Z M 3.828125 -5.796875 C 3.515625 -5.796875 3.226562 -5.671875 2.96875 -5.421875 C 2.707031 -5.179688 2.492188 -4.867188 2.328125 -4.484375 C 2.160156 -4.109375 2.0625 -3.703125 2.03125 -3.265625 C 2.007812 -2.828125 2.082031 -2.414062 2.25 -2.03125 C 2.425781 -1.65625 2.71875 -1.34375 3.125 -1.09375 C 3.53125 -0.851562 4.082031 -0.734375 4.78125 -0.734375 C 5.539062 -0.734375 6.234375 -0.925781 6.859375 -1.3125 C 7.484375 -1.695312 8.03125 -2.21875 8.5 -2.875 C 8.976562 -3.53125 9.367188 -4.253906 9.671875 -5.046875 Z M 3.828125 -5.796875 "/></g></g></g><g fill="#2367b1" fill-opacity="1"><g transform="translate(183.868827, 248.85242)"><g><path d="M 5.0625 0.234375 C 4.394531 0.234375 3.835938 0.117188 3.390625 -0.109375 C 2.953125 -0.347656 2.597656 -0.671875 2.328125 -1.078125 C 2.066406 -1.484375 1.863281 -1.945312 1.71875 -2.46875 C 1.582031 -2.988281 1.488281 -3.535156 1.4375 -4.109375 C 1.382812 -4.691406 1.359375 -5.273438 1.359375 -5.859375 C 1.359375 -6.441406 1.359375 -6.988281 1.359375 -7.5 C 1.359375 -7.800781 1.363281 -8.082031 1.375 -8.34375 C 1.382812 -8.613281 1.390625 -8.863281 1.390625 -9.09375 C 1.390625 -10.59375 1.5 -11.800781 1.71875 -12.71875 C 1.9375 -13.632812 2.238281 -14.300781 2.625 -14.71875 C 3.007812 -15.144531 3.453125 -15.359375 3.953125 -15.359375 C 4.378906 -15.359375 4.773438 -15.148438 5.140625 -14.734375 C 5.515625 -14.316406 5.816406 -13.734375 6.046875 -12.984375 C 6.273438 -12.242188 6.390625 -11.363281 6.390625 -10.34375 C 6.390625 -9.6875 6.304688 -9.007812 6.140625 -8.3125 C 5.972656 -7.625 5.722656 -6.953125 5.390625 -6.296875 C 5.066406 -5.648438 4.664062 -5.066406 4.1875 -4.546875 C 3.707031 -4.023438 3.164062 -3.609375 2.5625 -3.296875 C 2.601562 -2.691406 2.703125 -2.140625 2.859375 -1.640625 C 3.015625 -1.140625 3.269531 -0.738281 3.625 -0.4375 C 3.976562 -0.144531 4.460938 0 5.078125 0 C 5.410156 0 5.738281 -0.0507812 6.0625 -0.15625 C 6.394531 -0.269531 6.644531 -0.441406 6.8125 -0.671875 L 6.953125 -0.53125 C 6.734375 -0.25 6.457031 -0.0507812 6.125 0.0625 C 5.800781 0.175781 5.445312 0.234375 5.0625 0.234375 Z M 2.515625 -6.21875 C 2.515625 -5.800781 2.507812 -5.378906 2.5 -4.953125 C 2.5 -4.535156 2.507812 -4.117188 2.53125 -3.703125 C 3.0625 -3.890625 3.546875 -4.21875 3.984375 -4.6875 C 4.429688 -5.164062 4.816406 -5.722656 5.140625 -6.359375 C 5.460938 -7.003906 5.710938 -7.675781 5.890625 -8.375 C 6.078125 -9.070312 6.171875 -9.734375 6.171875 -10.359375 C 6.171875 -11.179688 6.085938 -11.894531 5.921875 -12.5 C 5.765625 -13.101562 5.5625 -13.597656 5.3125 -13.984375 C 5.070312 -14.367188 4.820312 -14.65625 4.5625 -14.84375 C 4.3125 -15.03125 4.097656 -15.125 3.921875 -15.125 C 3.453125 -15.125 3.097656 -14.804688 2.859375 -14.171875 C 2.628906 -13.535156 2.515625 -12.5 2.515625 -11.0625 Z M 2.515625 -6.21875 "/></g></g></g><g fill="#2367b1" fill-opacity="1"><g transform="translate(192.026408, 248.85242)"><g/></g></g><g fill="#2367b1" fill-opacity="1"><g transform="translate(201.090379, 248.85242)"><g><path d="M 0.453125 -0.171875 L 0.875 -0.171875 C 1.300781 -0.171875 1.632812 -0.28125 1.875 -0.5 C 2.125 -0.71875 2.300781 -1.019531 2.40625 -1.40625 C 2.519531 -1.789062 2.578125 -2.21875 2.578125 -2.6875 L 2.578125 -12.4375 C 2.578125 -12.914062 2.519531 -13.34375 2.40625 -13.71875 C 2.300781 -14.101562 2.125 -14.40625 1.875 -14.625 C 1.632812 -14.84375 1.300781 -14.953125 0.875 -14.953125 L 0.453125 -14.953125 L 0.453125 -15.125 L 8.46875 -15.125 C 9.007812 -15.125 9.554688 -15.050781 10.109375 -14.90625 C 10.671875 -14.769531 11.179688 -14.550781 11.640625 -14.25 C 12.109375 -13.957031 12.484375 -13.570312 12.765625 -13.09375 C 13.054688 -12.625 13.203125 -12.0625 13.203125 -11.40625 C 13.203125 -10.6875 13.023438 -10.0625 12.671875 -9.53125 C 12.328125 -9.007812 11.84375 -8.585938 11.21875 -8.265625 C 10.601562 -7.941406 9.878906 -7.707031 9.046875 -7.5625 C 10.242188 -7.539062 11.21875 -7.351562 11.96875 -7 C 12.71875 -6.644531 13.269531 -6.1875 13.625 -5.625 C 13.988281 -5.070312 14.171875 -4.472656 14.171875 -3.828125 C 14.171875 -3.097656 14.03125 -2.484375 13.75 -1.984375 C 13.476562 -1.492188 13.117188 -1.101562 12.671875 -0.8125 C 12.222656 -0.519531 11.726562 -0.3125 11.1875 -0.1875 C 10.65625 -0.0625 10.132812 0 9.625 0 L 0.453125 0 Z M 3.703125 -7.40625 L 3.703125 -2.6875 C 3.703125 -2.21875 3.75 -1.789062 3.84375 -1.40625 C 3.945312 -1.019531 4.164062 -0.71875 4.5 -0.5 C 4.832031 -0.289062 5.359375 -0.1875 6.078125 -0.1875 L 9.125 -0.1875 C 9.800781 -0.1875 10.4375 -0.316406 11.03125 -0.578125 C 11.625 -0.835938 12.101562 -1.238281 12.46875 -1.78125 C 12.84375 -2.320312 13.03125 -2.992188 13.03125 -3.796875 C 13.03125 -4.671875 12.8125 -5.375 12.375 -5.90625 C 11.9375 -6.4375 11.34375 -6.816406 10.59375 -7.046875 C 9.84375 -7.285156 9.003906 -7.40625 8.078125 -7.40625 Z M 3.703125 -7.5625 L 7.109375 -7.5625 C 8.066406 -7.5625 8.90625 -7.695312 9.625 -7.96875 C 10.34375 -8.238281 10.90625 -8.65625 11.3125 -9.21875 C 11.71875 -9.789062 11.921875 -10.515625 11.921875 -11.390625 C 11.921875 -12.078125 11.738281 -12.679688 11.375 -13.203125 C 11.007812 -13.734375 10.457031 -14.148438 9.71875 -14.453125 C 8.976562 -14.765625 8.023438 -14.921875 6.859375 -14.921875 C 6.765625 -14.921875 6.640625 -14.921875 6.484375 -14.921875 C 6.328125 -14.929688 6.191406 -14.9375 6.078125 -14.9375 C 5.347656 -14.9375 4.816406 -14.828125 4.484375 -14.609375 C 4.160156 -14.398438 3.945312 -14.101562 3.84375 -13.71875 C 3.75 -13.34375 3.703125 -12.914062 3.703125 -12.4375 Z M 3.703125 -7.5625 "/></g></g></g><g fill="#2367b1" fill-opacity="1"><g transform="translate(216.151683, 248.85242)"><g><path d="M 5.828125 0 L 0.453125 0 L 0.453125 -0.171875 L 0.875 -0.171875 C 1.300781 -0.171875 1.632812 -0.28125 1.875 -0.5 C 2.125 -0.71875 2.300781 -1.019531 2.40625 -1.40625 C 2.519531 -1.789062 2.578125 -2.21875 2.578125 -2.6875 C 2.578125 -3.175781 2.578125 -3.660156 2.578125 -4.140625 C 2.585938 -4.617188 2.59375 -5.015625 2.59375 -5.328125 C 2.59375 -5.648438 2.59375 -5.8125 2.59375 -5.8125 C 2.59375 -6.226562 2.566406 -6.617188 2.515625 -6.984375 C 2.460938 -7.347656 2.347656 -7.640625 2.171875 -7.859375 C 2.003906 -8.085938 1.734375 -8.203125 1.359375 -8.203125 L 0.546875 -8.203125 L 0.546875 -8.328125 C 0.941406 -8.328125 1.34375 -8.40625 1.75 -8.5625 C 2.15625 -8.726562 2.523438 -8.941406 2.859375 -9.203125 C 3.191406 -9.472656 3.445312 -9.757812 3.625 -10.0625 L 3.703125 -10.0625 L 3.703125 -5.53125 C 3.828125 -6.15625 4.050781 -6.738281 4.375 -7.28125 C 4.695312 -7.832031 5.085938 -8.3125 5.546875 -8.71875 C 6.015625 -9.132812 6.519531 -9.460938 7.0625 -9.703125 C 7.601562 -9.941406 8.15625 -10.0625 8.71875 -10.0625 C 9.289062 -10.0625 9.75 -10.023438 10.09375 -9.953125 C 10.4375 -9.878906 10.679688 -9.804688 10.828125 -9.734375 C 10.984375 -9.671875 11.0625 -9.640625 11.0625 -9.640625 L 11.0625 -8.375 C 10.582031 -8.613281 10.144531 -8.785156 9.75 -8.890625 C 9.363281 -9.003906 8.898438 -9.0625 8.359375 -9.0625 C 7.410156 -9.0625 6.597656 -8.847656 5.921875 -8.421875 C 5.253906 -8.003906 4.726562 -7.4375 4.34375 -6.71875 C 3.96875 -6 3.753906 -5.179688 3.703125 -4.265625 L 3.703125 -2.6875 C 3.703125 -2.21875 3.753906 -1.789062 3.859375 -1.40625 C 3.960938 -1.019531 4.140625 -0.71875 4.390625 -0.5 C 4.640625 -0.28125 4.976562 -0.171875 5.40625 -0.171875 L 5.828125 -0.171875 Z M 5.828125 0 "/></g></g></g><g fill="#2367b1" fill-opacity="1"><g transform="translate(227.647826, 248.85242)"><g><path d="M 4.171875 0.234375 C 3.503906 0.234375 2.953125 0.09375 2.515625 -0.1875 C 2.078125 -0.476562 1.75 -0.847656 1.53125 -1.296875 C 1.3125 -1.753906 1.203125 -2.238281 1.203125 -2.75 C 1.203125 -3.195312 1.285156 -3.613281 1.453125 -4 C 1.617188 -4.394531 1.835938 -4.738281 2.109375 -5.03125 C 2.378906 -5.332031 2.664062 -5.566406 2.96875 -5.734375 C 3.269531 -5.910156 3.5625 -6 3.84375 -6 L 9.6875 -6 L 9.6875 -7.390625 C 9.6875 -8.296875 9.5 -8.921875 9.125 -9.265625 C 8.75 -9.609375 8.238281 -9.78125 7.59375 -9.78125 C 7.15625 -9.78125 6.6875 -9.710938 6.1875 -9.578125 C 5.695312 -9.441406 5.207031 -9.269531 4.71875 -9.0625 C 4.238281 -8.851562 3.78125 -8.632812 3.34375 -8.40625 C 2.914062 -8.175781 2.550781 -7.972656 2.25 -7.796875 L 1.78125 -8.859375 C 2.6875 -9.273438 3.546875 -9.578125 4.359375 -9.765625 C 5.179688 -9.960938 6.054688 -10.0625 6.984375 -10.0625 C 8.328125 -10.0625 9.300781 -9.675781 9.90625 -8.90625 C 10.507812 -8.132812 10.8125 -6.9375 10.8125 -5.3125 L 10.8125 0 L 9.6875 0 L 9.6875 -4.5625 C 9.445312 -3.988281 9.160156 -3.421875 8.828125 -2.859375 C 8.503906 -2.296875 8.117188 -1.78125 7.671875 -1.3125 C 7.222656 -0.84375 6.710938 -0.46875 6.140625 -0.1875 C 5.566406 0.09375 4.910156 0.234375 4.171875 0.234375 Z M 3.828125 -5.796875 C 3.515625 -5.796875 3.226562 -5.671875 2.96875 -5.421875 C 2.707031 -5.179688 2.492188 -4.867188 2.328125 -4.484375 C 2.160156 -4.109375 2.0625 -3.703125 2.03125 -3.265625 C 2.007812 -2.828125 2.082031 -2.414062 2.25 -2.03125 C 2.425781 -1.65625 2.71875 -1.34375 3.125 -1.09375 C 3.53125 -0.851562 4.082031 -0.734375 4.78125 -0.734375 C 5.539062 -0.734375 6.234375 -0.925781 6.859375 -1.3125 C 7.484375 -1.695312 8.03125 -2.21875 8.5 -2.875 C 8.976562 -3.53125 9.367188 -4.253906 9.671875 -5.046875 Z M 3.828125 -5.796875 "/></g></g></g><g fill="#2367b1" fill-opacity="1"><g transform="translate(239.959725, 248.85242)"><g><path d="M 0.453125 0 L 0.453125 -0.171875 L 0.875 -0.171875 C 1.300781 -0.171875 1.632812 -0.28125 1.875 -0.5 C 2.125 -0.71875 2.300781 -1.019531 2.40625 -1.40625 C 2.519531 -1.789062 2.578125 -2.21875 2.578125 -2.6875 C 2.578125 -3.175781 2.578125 -3.660156 2.578125 -4.140625 C 2.585938 -4.617188 2.59375 -5.015625 2.59375 -5.328125 C 2.59375 -5.648438 2.59375 -5.8125 2.59375 -5.8125 C 2.59375 -6.226562 2.566406 -6.617188 2.515625 -6.984375 C 2.460938 -7.347656 2.347656 -7.640625 2.171875 -7.859375 C 2.003906 -8.085938 1.734375 -8.203125 1.359375 -8.203125 L 0.546875 -8.203125 L 0.546875 -8.328125 C 0.941406 -8.328125 1.34375 -8.40625 1.75 -8.5625 C 2.15625 -8.726562 2.523438 -8.941406 2.859375 -9.203125 C 3.191406 -9.472656 3.445312 -9.757812 3.625 -10.0625 L 3.703125 -10.0625 L 3.703125 -7.15625 C 4.097656 -7.664062 4.546875 -8.140625 5.046875 -8.578125 C 5.546875 -9.015625 6.101562 -9.367188 6.71875 -9.640625 C 7.332031 -9.921875 8 -10.0625 8.71875 -10.0625 C 9.28125 -10.0625 9.734375 -9.976562 10.078125 -9.8125 C 10.421875 -9.644531 10.679688 -9.425781 10.859375 -9.15625 C 11.046875 -8.882812 11.171875 -8.585938 11.234375 -8.265625 C 11.304688 -7.953125 11.347656 -7.632812 11.359375 -7.3125 C 11.367188 -7 11.375 -6.707031 11.375 -6.4375 L 11.375 -2.6875 C 11.375 -2.21875 11.425781 -1.789062 11.53125 -1.40625 C 11.632812 -1.019531 11.8125 -0.71875 12.0625 -0.5 C 12.3125 -0.28125 12.644531 -0.171875 13.0625 -0.171875 L 13.484375 -0.171875 L 13.484375 0 L 8.125 0 L 8.125 -0.171875 L 8.546875 -0.171875 C 8.972656 -0.171875 9.304688 -0.28125 9.546875 -0.5 C 9.796875 -0.71875 9.972656 -1.019531 10.078125 -1.40625 C 10.179688 -1.789062 10.234375 -2.21875 10.234375 -2.6875 C 10.234375 -2.976562 10.234375 -3.304688 10.234375 -3.671875 C 10.234375 -4.046875 10.234375 -4.425781 10.234375 -4.8125 C 10.242188 -5.195312 10.25 -5.550781 10.25 -5.875 C 10.25 -6.195312 10.25 -6.453125 10.25 -6.640625 C 10.25 -6.835938 10.25 -6.9375 10.25 -6.9375 C 10.25 -7.769531 10.109375 -8.414062 9.828125 -8.875 C 9.546875 -9.34375 9.015625 -9.578125 8.234375 -9.578125 C 7.859375 -9.578125 7.398438 -9.476562 6.859375 -9.28125 C 6.316406 -9.09375 5.765625 -8.789062 5.203125 -8.375 C 4.648438 -7.96875 4.148438 -7.425781 3.703125 -6.75 L 3.703125 -2.6875 C 3.703125 -2.21875 3.753906 -1.789062 3.859375 -1.40625 C 3.960938 -1.019531 4.140625 -0.71875 4.390625 -0.5 C 4.640625 -0.28125 4.976562 -0.171875 5.40625 -0.171875 L 5.828125 -0.171875 L 5.828125 0 Z M 0.453125 0 "/></g></g></g><g fill="#2367b1" fill-opacity="1"><g transform="translate(253.585905, 248.85242)"><g><path d="M 7.109375 0 C 6.054688 0 5.140625 -0.144531 4.359375 -0.4375 C 3.585938 -0.738281 2.941406 -1.132812 2.421875 -1.625 C 1.910156 -2.125 1.53125 -2.6875 1.28125 -3.3125 C 1.03125 -3.9375 0.90625 -4.570312 0.90625 -5.21875 C 0.90625 -5.820312 1.023438 -6.410156 1.265625 -6.984375 C 1.515625 -7.554688 1.878906 -8.070312 2.359375 -8.53125 C 2.835938 -9 3.441406 -9.367188 4.171875 -9.640625 C 4.910156 -9.921875 5.769531 -10.0625 6.75 -10.0625 C 7.882812 -10.0625 8.929688 -9.8125 9.890625 -9.3125 L 9.890625 -10.875 C 9.890625 -11.3125 9.863281 -11.707031 9.8125 -12.0625 C 9.769531 -12.414062 9.660156 -12.703125 9.484375 -12.921875 C 9.316406 -13.148438 9.050781 -13.265625 8.6875 -13.265625 L 7.859375 -13.265625 L 7.859375 -13.40625 C 8.253906 -13.40625 8.65625 -13.484375 9.0625 -13.640625 C 9.476562 -13.804688 9.847656 -14.019531 10.171875 -14.28125 C 10.503906 -14.539062 10.765625 -14.820312 10.953125 -15.125 L 11.03125 -15.125 L 11.03125 0 Z M 2.046875 -5.1875 C 2.046875 -4.5 2.1875 -3.851562 2.46875 -3.25 C 2.75 -2.65625 3.125 -2.128906 3.59375 -1.671875 C 4.0625 -1.222656 4.582031 -0.867188 5.15625 -0.609375 C 5.726562 -0.359375 6.3125 -0.234375 6.90625 -0.234375 C 7.445312 -0.234375 7.941406 -0.3125 8.390625 -0.46875 C 8.847656 -0.625 9.210938 -0.894531 9.484375 -1.28125 C 9.753906 -1.664062 9.890625 -2.179688 9.890625 -2.828125 L 9.890625 -9.03125 C 9.503906 -9.226562 9.046875 -9.394531 8.515625 -9.53125 C 7.984375 -9.675781 7.476562 -9.75 7 -9.75 C 6.300781 -9.75 5.648438 -9.632812 5.046875 -9.40625 C 4.441406 -9.175781 3.914062 -8.851562 3.46875 -8.4375 C 3.019531 -8.03125 2.671875 -7.550781 2.421875 -7 C 2.171875 -6.445312 2.046875 -5.84375 2.046875 -5.1875 Z M 2.046875 -5.1875 "/></g></g></g></svg>